grf
version=1
nRows=11
nColumns=37
inDegrees=no
endheader
time	ground_force_1_vx	ground_force_1_vy	ground_force_1_vz	ground_force_1_px	ground_force_1_py	ground_force_1_pz	ground_moment_1_mx	ground_moment_1_my	ground_moment_1_mz	ground_force_2_vx	ground_force_2_vy	ground_force_2_vz	ground_force_2_px	ground_force_2_py	ground_force_2_pz	ground_moment_2_mx	ground_moment_2_my	ground_moment_2_mz	ground_force_3_vx	ground_force_3_vy	ground_force_3_vz	ground_force_3_px	ground_force_3_py	ground_force_3_pz	ground_moment_3_mx	ground_moment_3_my	ground_moment_3_mz	ground_force_4_vx	ground_force_4_vy	ground_force_4_vz	ground_force_4_px	ground_force_4_py	ground_force_4_pz	ground_moment_4_mx	ground_moment_4_my	ground_moment_4_mz
      0.00000000	      0.00000000	     -0.00000000	      0.00000000	      0.00000000	      0.00000000	      0.00000000	      0.00000000	      0.00000000	      0.00000000	     -0.79811412	     43.67628479	   -589.10412598	   -306.54233692	  -1028.29198181	      0.00000000	      0.00000000	      0.00000000	    354.73859708	     -0.52813436	     -0.26702119	    -37.01007080	   -438.77982036	   -752.35823218	      0.00000000	      0.00000000	      0.00000000	    212.55846624	      0.00000000	     -0.00000000	      0.00000000	      0.00000000	      0.00000000	      0.00000000	      0.00000000	      0.00000000	      0.00000000
      0.01000000	      0.00000000	     -0.00000000	      0.00000000	      0.00000000	      0.00000000	      0.00000000	      0.00000000	      0.00000000	      0.00000000	     -0.10443896	     44.03802490	   -581.70745850	   -305.39658315	  -1028.01306988	      0.00000000	      0.00000000	      0.00000000	    270.64852553	      1.59015740	     -2.45979221	    -46.76890182	   -424.70484555	   -730.35576792	      0.00000000	      0.00000000	      0.00000000	    166.79375593	      0.00000000	     -0.00000000	      0.00000000	      0.00000000	      0.00000000	      0.00000000	      0.00000000	      0.00000000	      0.00000000
      0.02000000	      0.00000000	     -0.00000000	      0.00000000	      0.00000000	      0.00000000	      0.00000000	      0.00000000	      0.00000000	      0.00000000	      0.25959456	     44.46269226	   -574.23883057	   -305.53496205	  -1027.73769912	      0.00000000	      0.00000000	      0.00000000	    159.64260877	      2.75709109	     -4.42076838	    -54.10924149	   -428.08927807	   -741.88103876	      0.00000000	      0.00000000	      0.00000000	    110.68465591	      0.00000000	     -0.00000000	      0.00000000	      0.00000000	      0.00000000	      0.00000000	      0.00000000	      0.00000000	      0.00000000
      0.03000000	      0.00000000	     -0.00000000	      0.00000000	      0.00000000	      0.00000000	      0.00000000	      0.00000000	      0.00000000	      0.00000000	      0.10045958	     44.03603745	   -567.24041748	   -305.21552537	  -1026.66802813	      0.00000000	      0.00000000	      0.00000000	     60.40053946	      4.16443703	     -6.00587482	    -67.30802155	   -416.40974957	   -738.99275987	      0.00000000	      0.00000000	     -0.00000000	    -91.69178526	      0.00000000	     -0.00000000	      0.00000000	      0.00000000	      0.00000000	      0.00000000	      0.00000000	      0.00000000	      0.00000000
      0.04000000	      0.00000000	     -0.00000000	      0.00000000	      0.00000000	      0.00000000	      0.00000000	      0.00000000	      0.00000000	      0.00000000	      0.42533547	     44.46720505	   -559.53076172	   -305.13250849	  -1026.25165740	      0.00000000	      0.00000000	      0.00000000	    337.11638672	      4.53214369	     -8.63194676	    -79.97643280	   -407.89964546	   -738.91235207	      0.00000000	      0.00000000	     -0.00000000	    -46.36588891	      0.00000000	     -0.00000000	      0.00000000	      0.00000000	      0.00000000	      0.00000000	      0.00000000	      0.00000000	      0.00000000
      0.05000000	      0.00000000	     -0.00000000	      0.00000000	      0.00000000	      0.00000000	      0.00000000	      0.00000000	      0.00000000	      0.00000000	     -0.53836358	     44.20248413	   -551.70391846	   -303.94281565	  -1027.02065910	      0.00000000	      0.00000000	     -0.00000000	    -27.63645113	      5.12859636	     -9.70710777	    -94.64189911	   -401.77894817	   -736.70936007	      0.00000000	      0.00000000	     -0.00000000	   -175.86283935	      0.00000000	     -0.00000000	      0.00000000	      0.00000000	      0.00000000	      0.00000000	      0.00000000	      0.00000000	      0.00000000
      0.06000000	      0.00000000	     -0.00000000	      0.00000000	      0.00000000	      0.00000000	      0.00000000	      0.00000000	      0.00000000	      0.00000000	     -1.07376754	     44.28162003	   -540.75701904	   -302.24266022	  -1026.42044635	      0.00000000	      0.00000000	     -0.00000000	   -120.97492135	      6.01195191	    -11.29937866	   -109.28445435	   -396.22690564	   -734.89205683	      0.00000000	     -0.00000000	     -0.00000000	   -340.43487908	      0.00000000	     -0.00000000	      0.00000000	      0.00000000	      0.00000000	      0.00000000	      0.00000000	      0.00000000	      0.00000000
      0.07000000	      0.00000000	     -0.00000000	      0.00000000	      0.00000000	      0.00000000	      0.00000000	      0.00000000	      0.00000000	      0.00000000	     -2.13430309	     44.20867920	   -528.73706055	   -300.99063250	  -1025.83205438	      0.00000000	      0.00000000	     -0.00000000	   -346.13894164	      6.65939609	    -12.72135382	   -127.78948975	   -384.75297683	   -732.47737919	      0.00000000	      0.00000000	     -0.00000000	   -377.02474957	      0.00000000	     -0.00000000	      0.00000000	      0.00000000	      0.00000000	      0.00000000	      0.00000000	      0.00000000	      0.00000000
      0.08000000	      0.00000000	     -0.00000000	      0.00000000	      0.00000000	      0.00000000	      0.00000000	      0.00000000	      0.00000000	      0.00000000	     -2.78313494	     42.52224350	   -515.27563477	   -299.39820458	  -1027.72083879	      0.00000000	      0.00000000	     -0.00000000	   -245.58148736	      4.35958946	    -13.52592392	   -146.64367676	   -377.38324474	   -732.27518235	      0.00000000	      0.00000000	     -0.00000000	   -384.45444576	      0.00000000	     -0.00000000	      0.00000000	      0.00000000	      0.00000000	      0.00000000	      0.00000000	      0.00000000	      0.00000000
      0.09000000	      0.00000000	     -0.00000000	      0.00000000	      0.00000000	      0.00000000	      0.00000000	      0.00000000	      0.00000000	      0.00000000	     -4.11467075	     41.12570953	   -494.18576050	   -296.70160810	  -1025.50230059	      0.00000000	      0.00000000	     -0.00000000	   -310.87570421	      2.86205606	    -15.36134256	   -169.31231689	   -367.51428001	   -734.00920969	      0.00000000	      0.00000000	     -0.00000000	   -726.82012581	      0.00000000	     -0.00000000	      0.00000000	      0.00000000	      0.00000000	      0.00000000	      0.00000000	      0.00000000	      0.00000000
      0.10000000	      0.00000000	     -0.00000000	      0.00000000	      0.00000000	      0.00000000	      0.00000000	      0.00000000	      0.00000000	      0.00000000	     -5.52344418	     40.37607574	   -472.17147827	   -294.89583732	  -1025.93777909	      0.00000000	      0.00000000	     -0.00000000	   -708.69459769	      2.23165153	    -16.78803072	   -193.76548767	   -358.82940251	   -733.09785149	      0.00000000	      0.00000000	     -0.00000000	  -1082.32707774	      0.00000000	     -0.00000000	      0.00000000	      0.00000000	      0.00000000	      0.00000000	      0.00000000	      0.00000000	      0.00000000
